# xmcd
#
# Track frame offsets:
#	150
#	13488
#	24685
#	40083
#	55325
#	69230
#	90880
#	105920
#	120515
#	134040
#	146380
#	162343
#	178778
#	195238
#
# Disc length: 2828
#
# Revision: 2
# Processed by: cddbd v1.5.1PL0 Copyright (c) Steve Scherf et al.
# Submitted via: audiograbber 1.83.01
# Normalized: r1:DSETVAR1
#
DISCID=b50b0a0e
DTITLE=Various Artist - Mr Music Country 1995-11
DYEAR=1995
DGENRE=Country
TTITLE0=Tim McGraw - Indian Outlaw
TTITLE1=Cumberland Mountain Band - Dancin' Fools
TTITLE2=Jeannie C. Riley - Wings To Fly
TTITLE3=David Allan Coe and Tony Perez - Then I Found You
TTITLE4=Joni Wallace - The Tennessee Rock And Roll
TTITLE5=Gary P. Nunn - Nine Cents Change
TTITLE6=Becky Hobbs - I Don't Dance Whit Strangers
TTITLE7=George Highfill - Mama You Can't Blame Me
TTITLE8=Autumn Leaves - Louisiana Skies
TTITLE9=Cindy Church - Haunted Honky Tonk
TTITLE10=Chris Wall - My Favorite Lies
TTITLE11=DeAnne Timberlake - Knock Knock Who's There
TTITLE12=Rhonda Jones - What Am I
TTITLE13=Tom Cunningham - She Had The Nicest Pair Of B-B-B-Boots
EXTD=
EXTT0=
EXTT1=
EXTT2=
EXTT3=
EXTT4=
EXTT5=
EXTT6=
EXTT7=
EXTT8=
EXTT9=
EXTT10=
EXTT11=
EXTT12=
EXTT13=
PLAYORDER=
